<svg xmlns="http://www.w3.org/2000/svg" viewBox="0 0 234.31 129.52"><defs><style>.cls-1{fill:#ff6700;}.cls-2{fill:#fff;}</style></defs><title>logo-compliance</title><g id="Capa_2" data-name="Capa 2"><g id="Capa_1-2" data-name="Capa 1"><path class="cls-1" d="M127.38,0A64.78,64.78,0,0,0,64.76,48.21V0a64.76,64.76,0,0,0,0,129.52V81.3A64.76,64.76,0,1,0,127.38,0Z"/><rect x="197.72" y="46.87" width="8.52" height="40.89"/><rect x="212.37" y="46.87" width="8.52" height="40.89"/><path class="cls-2" d="M8.1,64.61v0A10.62,10.62,0,0,1,19,53.75,10.78,10.78,0,0,1,27.23,57l-2.92,3.38A7.71,7.71,0,0,0,19,58c-3.52,0-6.06,2.92-6.06,6.51v.06c0,3.57,2.48,6.56,6.06,6.56,2.39,0,3.85-1,5.49-2.45l2.93,3a10.68,10.68,0,0,1-8.57,3.73A10.55,10.55,0,0,1,8.1,64.61"/><path class="cls-2" d="M29.51,67.09V67a8.4,8.4,0,0,1,8.68-8.33A8.32,8.32,0,0,1,46.82,67V67a8.4,8.4,0,0,1-8.69,8.33,8.31,8.31,0,0,1-8.62-8.27m12.83,0V67a4.25,4.25,0,0,0-4.21-4.42A4.1,4.1,0,0,0,34,67V67a4.26,4.26,0,0,0,4.21,4.42,4.1,4.1,0,0,0,4.15-4.36"/><path class="cls-2" d="M50.11,59h4.54v2.27a5.71,5.71,0,0,1,4.71-2.57,4.8,4.8,0,0,1,4.51,2.54,6.58,6.58,0,0,1,5.25-2.54c3.37,0,5.4,2,5.4,5.88V75H70V66.08c0-2.15-1-3.26-2.65-3.26s-2.74,1.11-2.74,3.26V75H60.05V66.08c0-2.15-1-3.26-2.66-3.26s-2.74,1.11-2.74,3.26V75H50.11Z"/><path class="cls-2" d="M78.48,59H83v2.3a5.9,5.9,0,0,1,5-2.6c3.73,0,7.28,2.93,7.28,8.27V67c0,5.34-3.49,8.27-7.28,8.27a6.17,6.17,0,0,1-5-2.39v6.86H78.48Zm12.26,8V67c0-2.66-1.79-4.41-3.91-4.41S83,64.31,83,67V67c0,2.66,1.76,4.42,3.88,4.42s3.91-1.73,3.91-4.42"/><rect class="cls-2" x="98.84" y="53.22" width="4.54" height="21.78"/><path class="cls-2" d="M107.74,53.22h4.77v4h-4.77Zm.12,5.78h4.53V75h-4.53Z"/><path class="cls-2" d="M115.71,70.41v-.07c0-3.49,2.66-5.1,6.45-5.1a11.35,11.35,0,0,1,3.91.66v-.27c0-1.88-1.17-2.93-3.44-2.93a11.67,11.67,0,0,0-4.41.87l-1.14-3.46a14.09,14.09,0,0,1,6.21-1.28c2.48,0,4.27.65,5.4,1.78a7,7,0,0,1,1.73,5.11V75H126V73.27a6.14,6.14,0,0,1-4.83,2c-3,0-5.49-1.73-5.49-4.89m10.42-1v-.81a7.23,7.23,0,0,0-2.9-.59c-1.94,0-3.13.77-3.13,2.2v.06c0,1.23,1,1.94,2.47,1.94,2.12,0,3.56-1.16,3.56-2.8"/><path class="cls-2" d="M134.34,59h4.54v2.27a5.65,5.65,0,0,1,4.68-2.57C147,58.7,149,61,149,64.64V75h-4.53V66.08c0-2.15-1-3.26-2.75-3.26s-2.83,1.11-2.83,3.26V75h-4.54Z"/><path class="cls-2" d="M152.17,67.09V67a8.22,8.22,0,0,1,8.38-8.33,7.87,7.87,0,0,1,6.39,2.69l-2.78,3a4.66,4.66,0,0,0-3.64-1.77A4.09,4.09,0,0,0,156.64,67V67a4.1,4.1,0,0,0,4.06,4.42,5.08,5.08,0,0,0,3.67-1.7L167,72.43a8.06,8.06,0,0,1-6.54,2.93,8.17,8.17,0,0,1-8.32-8.27"/><path class="cls-2" d="M168.77,67.09V67c0-4.56,3.25-8.33,7.9-8.33,5.35,0,7.8,4.15,7.8,8.69,0,.36,0,.78-.06,1.19H173.27a3.72,3.72,0,0,0,3.91,3.14,5.25,5.25,0,0,0,3.88-1.64l2.6,2.29a8.44,8.44,0,0,1-14.89-5.28m11.28-1.34c-.27-2-1.46-3.4-3.38-3.4s-3.1,1.34-3.45,3.4Z"/><path class="cls-2" d="M231,69.13h.08a3.22,3.22,0,0,1,0,6.43H231a3.22,3.22,0,1,1,0-6.43"/></g></g></svg>